<svg xmlns="http://www.w3.org/2000/svg" width="300" height="300"><path fill="#fff" d="M22.884 195.866c-11.79 0-21.384 9.594-21.384 21.382s9.593 21.38 21.384 21.38 21.385-9.6 21.385-21.38-9.59-21.382-21.385-21.382zm0 32.89a11.53 11.53 0 01-11.513-11.507 11.53 11.53 0 0111.513-11.511c6.346 0 11.514 5.168 11.514 11.51a11.53 11.53 0 01-11.514 11.507zm132.083 22.354c-11.79 0-21.38 9.6-21.38 21.38s9.6 21.38 21.38 21.38 21.384-9.6 21.384-21.38-9.6-21.38-21.384-21.38zm0 32.884a11.53 11.53 0 01-11.515-11.506c0-6.345 5.168-11.5 11.515-11.5a11.53 11.53 0 0111.514 11.51 11.53 11.53 0 01-11.514 11.506zm-21.86-132.254c-13.177 0-23.9 10.72-23.9 23.896 0 13.17 10.725 23.9 23.9 23.9 13.182 0 23.906-10.73 23.906-23.9.001-13.177-10.724-23.896-23.906-23.896zm0 28.06a4.17 4.17 0 01-4.161-4.162 4.164 4.164 0 018.326 0c0 2.3-1.87 4.162-4.166 4.162zm-100.174 9.787L117 60.343c1.485-2.284 4.537-2.93 6.825-1.445s2.937 4.54 1.445 6.825l-84.077 129.24a4.93 4.93 0 01-4.139 2.242c-.92 0-1.858-.257-2.683-.798a4.93 4.93 0 01-1.449-6.823zm119.21-49.855L275.477 9.22a9.88 9.88 0 0113.955-.396c3.954 3.74 4.128 9.986.387 13.95L166.5 153.284a9.834 9.834 0 01-7.17 3.096 9.85 9.85 0 01-6.782-2.7c-3.96-3.74-4.135-9.99-.395-13.95zm144.56 25.69L181.99 259.85a4.916 4.916 0 01-3.132 1.128 4.917 4.917 0 01-3.817-1.8 4.933 4.933 0 01.674-6.943L290.42 157.8a4.94 4.94 0 016.958.678 4.933 4.933 0 01-.673 6.94zm-163.598 48.463c-21.086 0-38.242-17.156-38.242-38.246a37.95 37.95 0 017.985-23.396c.02-.03.05-.03.063-.06l84.85-117.94a4.94 4.94 0 016.894-1.128 4.948 4.948 0 011.118 6.9l-85 118.16c-.03.04-.07.05-.1.088l-.014.027a28.21 28.21 0 00-5.923 17.362c0 15.642 12.728 28.377 28.373 28.377a28.16 28.16 0 0022.741-11.393c.1-.125.225-.185.333-.3.088-.116.135-.25.242-.348L262.238 92.6a4.963 4.963 0 016.977.2 4.938 4.938 0 01-.218 6.98l-105.823 99.373c-.02.02-.05.03-.07.04-7.295 9.29-18.136 14.67-29.998 14.67z"/></svg>