<svg xmlns="http://www.w3.org/2000/svg" width="563.535" height="560" viewBox="196.5 0 563.535 560" fill="#28537b"><path d="M428.188 475.575c-27.23 0-63.572-19.425-94.838-50.7-20.802-20.802-36.727-44.252-44.847-66.034-9.23-24.768-7.5-45.243 4.912-57.633 7.035-7.047 17-10.757 28.84-10.757 27.23 0 63.572 19.425 94.84 50.7 20.8 20.802 36.727 44.252 44.847 66.033 9.228 24.77 7.5 45.244-4.912 57.634-7.036 7.036-17 10.757-28.84 10.757zm-105.92-161.793c-5.588 0-9.73 1.317-12.343 3.92-5.402 5.4-5.238 17.744.455 32.993 6.965 18.713 20.988 39.188 39.48 57.68 30.298 30.3 61.18 43.855 78.342 43.855 5.588 0 9.73-1.318 12.343-3.92 5.402-5.402 5.238-17.745-.455-32.994-6.965-18.713-20.988-39.188-39.48-57.68-30.3-30.286-61.182-43.854-78.343-43.854zM499.8 375.358a11.64 11.64 0 01-8.248-3.418 11.653 11.653 0 010-16.497c3.42-3.418 3.477-11.655.14-21.502-4.352-12.868-14.022-27.416-26.518-39.9-20.02-20.03-40.997-29-52.896-29-2.695 0-6.358.455-8.506 2.613-4.538 4.55-11.888 4.562-16.46.046l-.968-.957a11.71 11.71 0 01-3.465-8.26 11.62 11.62 0 013.418-8.284l89.506-89.506a11.734 11.734 0 016.22-3.244c5.495-3.453 12.203-5.25 19.763-5.25 20.697 0 47.297 13.732 69.382 35.83 15.18 15.167 26.577 32.55 32.13 48.93 6.476 19.145 4.434 35.304-5.763 45.488l-89.437 89.448c-.012.012-.023.035-.047.047a11.656 11.656 0 01-8.25 3.42zM426 243.478c17.955 4.375 38.208 16.602 55.66 34.055 15.155 15.167 26.577 32.538 32.12 48.918a75.102 75.102 0 011.562 5.168l65.684-65.683c3.43-3.43 3.488-11.667.163-21.513-4.352-12.868-14.022-27.417-26.518-39.912-26.647-26.646-54.426-33.4-61.438-26.367a11.67 11.67 0 01-4.807 2.905L426 243.48z"/><path d="M374.615 326.813a11.64 11.64 0 01-8.249-3.418 11.653 11.653 0 010-16.497l54.997-55.008a11.653 11.653 0 0116.497 0c4.562 4.55 4.562 11.935 0 16.497l-54.997 55.008a11.63 11.63 0 01-8.248 3.418zm68.472 68.497a11.637 11.637 0 01-8.25-3.42 11.652 11.652 0 010-16.496l55-55c4.562-4.562 11.935-4.562 16.497 0s4.562 11.936 0 16.497l-55 55.008a11.637 11.637 0 01-8.248 3.42zm-130.54 62.03a11.685 11.685 0 01-8.26-3.418c-4.55-4.562-4.55-11.946 0-16.497l52.278-52.243a11.67 11.67 0 0116.509 0c4.55 4.562 4.55 11.946 0 16.497l-52.278 52.243a11.64 11.64 0 01-8.249 3.418zm23.987 57.283c-23.124 0-46.83-10.185-64.785-28.15-16.077-16.088-25.958-36.575-27.813-57.7-.56-6.43 4.177-12.087 10.605-12.646 6.5-.537 12.075 4.177 12.635 10.593 1.376 15.68 8.867 31.033 21.082 43.248 15.155 15.167 35.315 23.042 54.005 21.023 6.347-.7 12.157 3.932 12.845 10.36.688 6.405-3.943 12.156-10.35 12.845-2.73.3-5.483.42-8.225.42zm-13.697 45.397c-31.757 0-63.28-13.207-87.337-37.264-24.698-24.7-38.255-57.972-37.193-91.245.2-6.44 5.787-11.9 12.03-11.28 6.44.2 11.5 5.588 11.293 12.028-.852 26.856 10.208 53.83 30.38 74.002 23.894 23.904 56.595 34.708 87.477 28.898 6.335-1.18 12.425 2.975 13.626 9.298 1.2 6.335-2.975 12.437-9.3 13.627a114.446 114.446 0 01-20.965 1.937zm62.23-322.293a11.64 11.64 0 01-8.25-3.418l-133.5-133.502a11.684 11.684 0 01-3.418-8.248 11.64 11.64 0 013.418-8.249l80.908-80.908a11.653 11.653 0 0116.497 0l133.5 133.5a11.66 11.66 0 013.419 8.249 11.64 11.64 0 01-3.419 8.248l-80.92 80.9a11.588 11.588 0 01-8.237 3.418zM268.063 92.56l117.005 117.005 64.412-64.412L332.475 28.147 268.063 92.56zm397.635 425.773a11.615 11.615 0 01-8.248-3.418L523.96 381.4a11.652 11.652 0 010-16.496l80.908-80.908a11.653 11.653 0 0116.497 0l133.502 133.5a11.64 11.64 0 013.418 8.249 11.62 11.62 0 01-3.418 8.248l-80.92 80.92a11.66 11.66 0 01-8.248 3.418zm-116.993-145.18l116.993 117.005 64.412-64.4-116.993-116.994-64.412 64.4z"/></svg>